# xmcd CD database file
# Copyright (C) 1996 Ti Kan
#
# Track frame offsets:
#	150
#	16340
#	28852
#	43715
#	61902
#	77015
#	90587
#	103937
#	117620
#	132437
#
# Disc length: 1982 seconds
#
# Revision: 1
# Processed by: cddbd v1.4b41PL1 Copyright (c) Steve Scherf et al.
# Submitted via: EasyCD 2.21 - (C) 1996 Greg Leichner
#
DISCID=8407bc0a
DTITLE=New Riders of the Purple Sage - Keep on Keepin' on
DYEAR=1900
DGENRE=
TTITLE0=Keep on Keepin' on
TTITLE1=Now I Call it Love
TTITLE2=It's O.K. to Cry
TTITLE3=Bounty Hunter
TTITLE4=Barbaric Splendor
TTITLE5=Senorita
TTITLE6=Night of the Living Lonely
TTITLE7=Rancher's Daughter
TTITLE8=Big Ed
TTITLE9=Friend of the Devil
EXTD=
EXTT0=
EXTT1=
EXTT2=
EXTT3=
EXTT4=
EXTT5=
EXTT6=
EXTT7=
EXTT8=
EXTT9=
PLAYORDER=
